<svg width="28" height="24" viewBox="0 0 28 24" fill="none" xmlns="http://www.w3.org/2000/svg">
<path d="M20.6665 0.666748H7.33317C3.33317 0.666748 0.666504 2.66675 0.666504 7.33342V16.6667C0.666504 21.3334 3.33317 23.3334 7.33317 23.3334H20.6665C24.6665 23.3334 27.3332 21.3334 27.3332 16.6667V7.33342C27.3332 2.66675 24.6665 0.666748 20.6665 0.666748ZM21.2932 8.78675L17.1198 12.1201C16.2398 12.8267 15.1198 13.1734 13.9998 13.1734C12.8798 13.1734 11.7465 12.8267 10.8798 12.1201L6.7065 8.78675C6.27984 8.44008 6.21317 7.80008 6.5465 7.37341C6.89317 6.94675 7.51984 6.86675 7.9465 7.21341L12.1198 10.5467C13.1332 11.3601 14.8532 11.3601 15.8665 10.5467L20.0398 7.21341C20.4665 6.86675 21.1065 6.93341 21.4398 7.37341C21.7865 7.80008 21.7198 8.44008 21.2932 8.78675Z" fill="#0049FC"/>
</svg>
